<?xml version='1.0' encoding='iso-8859-1'?>
<svg version="1.1" xmlns="http://www.w3.org/2000/svg" viewBox="0 0 463 463" xmlns:xlink="http://www.w3.org/1999/xlink" enable-background="new 0 0 463 463">
  <g>
    <path d="M395.195,67.805C351.471,24.08,293.336,0,231.5,0S111.529,24.08,67.805,67.805S0,169.664,0,231.5   s24.08,119.971,67.805,163.695S169.664,463,231.5,463s119.971-24.08,163.695-67.805S463,293.336,463,231.5   S438.92,111.529,395.195,67.805z M384.589,384.589C343.697,425.48,289.329,448,231.5,448s-112.197-22.52-153.089-63.411   S15,289.329,15,231.5S37.52,119.303,78.411,78.411S173.671,15,231.5,15s112.197,22.52,153.089,63.411S448,173.671,448,231.5   S425.48,343.697,384.589,384.589z"/>
    <path d="M305.426,209.309C318.596,198.386,327,181.907,327,163.5c0-32.809-26.691-59.5-59.5-59.5H231V79.5   c0-4.143-3.357-7.5-7.5-7.5s-7.5,3.357-7.5,7.5V104h-17V79.5c0-4.143-3.357-7.5-7.5-7.5s-7.5,3.357-7.5,7.5V104h-56.5   c-4.143,0-7.5,3.357-7.5,7.5s3.357,7.5,7.5,7.5H144v225h-16.5c-4.143,0-7.5,3.357-7.5,7.5s3.357,7.5,7.5,7.5H184v24.5   c0,4.143,3.357,7.5,7.5,7.5s7.5-3.357,7.5-7.5V359h17v24.5c0,4.143,3.357,7.5,7.5,7.5s7.5-3.357,7.5-7.5V359h60.5   c41.631,0,75.5-33.869,75.5-75.5C367,246.628,340.424,215.865,305.426,209.309z M267.5,119c24.537,0,44.5,19.963,44.5,44.5   S292.037,208,267.5,208H159v-89H267.5z M291.5,344H159V223h108.5h24c33.359,0,60.5,27.141,60.5,60.5S324.859,344,291.5,344z"/>
  </g>
</svg>
